<svg xmlns="http://www.w3.org/2000/svg" width="42.466" height="45.73" viewBox="0 0 42.466 45.73">
  <g id="_595990_1_" data-name="595990 (1)" transform="translate(-23.662 503.124)">
    <path id="Path_16188" data-name="Path 16188" d="M27.951-246.347c-3.309,3.326-3.553,3.6-3.859,4.208a4.1,4.1,0,0,0-.017,3.623c.271.541.567.873,2.732,3.02,2.532,2.514,2.715,2.654,3.736,2.924a4.294,4.294,0,0,0,3.23-.5,21.183,21.183,0,0,0,1.99-1.807l1.545-1.536,4.042,4.016c3.623,3.623,4.077,4.042,4.461,4.173a3.789,3.789,0,0,0,2,0,2.835,2.835,0,0,0,1.5-1.44,2.042,2.042,0,0,0,.2-1.248c-.052-1.065-.2-1.275-2.514-3.588l-2-2,.69-.716a4.37,4.37,0,0,0,1.266-2.1c.367-1.4-.689-4.12-1.763-5.237l-.585-.611-.69.506c-.375.279-.873.663-1.109.855l-.41.34.559.6c.908.96,1.58,2.8.654,3.788l-.594.629-5.762-5.727-5.77-5.727Zm6.093,2.907a1.445,1.445,0,0,1,.786,1.03c.113.541-.148.952-1.388,2.174-1.292,1.257-1.571,1.423-2.235,1.24a1.6,1.6,0,0,1-.986-1.03c-.044-.829.052-.986,1.388-2.3S33.294-243.807,34.045-243.44Z" transform="translate(0 -229.304)" fill="#7871ff"/>
    <rect id="Rectangle_4096" data-name="Rectangle 4096" width="3.085" height="6.17" rx="1.543" transform="translate(51.217 -503.124)" fill="#9f9aff"/>
    <rect id="Rectangle_4097" data-name="Rectangle 4097" width="3.085" height="6.17" rx="1.543" transform="translate(66.128 -491.297) rotate(90)" fill="#9f9aff"/>
    <rect id="Rectangle_4098" data-name="Rectangle 4098" width="3.085" height="6.17" rx="1.543" transform="translate(61.049 -500.225) rotate(45)" fill="#9f9aff"/>
    <path id="Path_16187" data-name="Path 16187" d="M216.118-498.708a2.618,2.618,0,0,0-1.353,1.318,2.268,2.268,0,0,0-.1,2.017l.227.725,8.965,8.957c8.677,8.686,8.974,8.974,9.48,9.158a2.673,2.673,0,0,0,2.278-.122,2.285,2.285,0,0,0,1.309-1.475,3.225,3.225,0,0,0-.131-2.069c-.3-.585-17.782-18.079-18.385-18.394A3.132,3.132,0,0,0,216.118-498.708Z" transform="translate(-174.155 -1.396)" fill="#ff79be"/>
    <path id="Path_16189" data-name="Path 16189" d="M63.772-474.287a53.613,53.613,0,0,0-12.044,2.426,20.881,20.881,0,0,0-7.722,5.01l-8.72-8.788a24.739,24.739,0,0,0,6.383-7.055,33.626,33.626,0,0,0,3.276-9.932Z" transform="translate(-3.814 -3.445)" fill="#f43397"/>
  </g>
</svg>
